PathFileType   4   (X/Y/Z)
DataRate	CameraRate	NumFrames	NumMarkers	Units	OrigDataRate	OrigDataStartFrame	OrigNumFrames
120.0	120.0	12	37	mm	120.0	92	105
Frame#	Time	midhip	hip_r	hip_l	knee_r	knee_l	ankle_r	ankle_l	midasis	asis_r	asis_l	psis_r	psis_l	epicondLat_r	epicondLat_l	epicondMed_r	epicondMed_l	malleolusLat_r	malleolusLat_l	malleolusMedv_r	malleolusMedv_l	neck	subclavicle_r	subclavicle_l	sternalnotch	xyphoidprocess	thighwand_r	thighwand_l	upperleg1_r	upperleg1_l	upperleg2_r	upperleg2_l	shankwand_r	shankwand_l	lowerleg1_r	lowerleg1_l	toe_r	toe_l
 	 	X1	Y1	Z1	X2	Y2	Z2	X3	Y3	Z3	X4	Y4	Z4	X5	Y5	Z5	X6	Y6	Z6	X7	Y7	Z7	X8	Y8	Z8	X9	Y9	Z9	X10	Y10	Z10	X11	Y11	Z11	X12	Y12	Z12	X13	Y13	Z13	X14	Y14	Z14	X15	Y15	Z15	X16	Y16	Z16	X17	Y17	Z17	X18	Y18	Z18	X19	Y19	Z19	X20	Y20	Z20	X21	Y21	Z21	X22	Y22	Z22	X23	Y23	Z23	X24	Y24	Z24	X25	Y25	Z25	X26	Y26	Z26	X27	Y27	Z27	X28	Y28	Z28	X29	Y29	Z29	X30	Y30	Z30	X31	Y31	Z31	X32	Y32	Z32	X33	Y33	Z33	X34	Y34	Z34	X35	Y35	Z35	X36	Y36	Z36	X37	Y37	Z37

	92	0.86667	1513.745	733.396	-225.925	1504.564	730.319	-158.753	1491.819	733.664	-288.401	1663.204	415.494	-165.254	1418.995	424.015	-267.568	1724.144	80.339	-162.170	1316.656	77.989	-253.375	1572.922	795.831	-229.277	1582.631	793.283	-130.518	1563.213	798.379	-328.035	1425.610	844.082	-176.155	1417.186	846.268	-230.091	1666.814	416.180	-110.377	1408.895	422.788	-321.110	1664.115	416.831	-208.009	1419.049	404.808	-226.254	1715.590	79.120	-125.679	1308.005	79.073	-289.334	1729.200	84.281	-186.065	1315.254	79.691	-222.496	1458.856	1210.039	-235.692	1565.664	1149.178	-193.369	1563.219	1152.124	-269.303	1549.666	1149.808	-232.290	1575.909	1066.937	-233.942	1712.957	571.840	-58.019	1591.147	513.521	-309.142	1617.465	585.939	-84.072	1530.673	585.542	-334.498	1653.788	510.049	-100.648	1500.315	504.217	-326.123	1680.179	187.011	-49.381	1355.178	192.708	-369.139	1693.482	153.497	-124.553	1330.758	161.032	-295.419	1819.914	66.766	-137.628	1409.740	36.730	-263.010
	93	0.87500	1526.170	732.261	-225.607	1516.826	728.658	-158.264	1502.967	732.395	-287.787	1675.272	413.405	-165.411	1424.057	424.421	-267.145	1755.691	80.775	-161.109	1317.837	79.363	-252.870	1584.670	794.273	-229.187	1595.233	791.425	-130.461	1574.106	797.122	-327.913	1438.048	842.549	-174.957	1429.243	844.843	-228.765	1678.215	413.639	-110.490	1413.025	423.671	-320.511	1673.397	413.426	-207.492	1424.955	405.487	-225.104	1747.306	79.220	-124.592	1308.602	80.724	-288.674	1760.334	84.898	-185.111	1316.435	81.194	-221.817	1470.714	1208.506	-235.316	1577.329	1147.806	-192.738	1574.987	1150.577	-268.668	1561.384	1148.347	-231.675	1587.621	1065.470	-233.101	1722.283	568.989	-57.583	1597.380	510.967	-311.261	1626.328	583.309	-84.812	1537.694	584.637	-334.879	1662.481	507.232	-100.684	1505.881	503.829	-326.258	1705.897	185.344	-48.532	1355.855	194.441	-368.691	1720.967	152.262	-123.676	1332.099	162.491	-294.688	1852.479	71.869	-137.775	1410.013	36.867	-262.975
	94	0.88333	1538.769	731.140	-225.498	1529.268	726.921	-157.822	1514.276	731.010	-287.207	1686.935	411.131	-165.436	1429.607	424.721	-266.809	1785.623	82.039	-160.028	1319.069	80.820	-252.541	1596.569	792.636	-229.169	1608.001	789.518	-130.508	1585.137	795.753	-327.830	1450.633	840.918	-173.782	1441.365	843.334	-227.486	1689.463	411.068	-110.494	1417.763	424.452	-320.006	1681.695	409.064	-206.025	1431.312	406.532	-223.391	1777.490	80.201	-123.466	1309.360	82.461	-288.206	1789.732	86.306	-184.100	1317.584	82.728	-221.371	1482.320	1206.725	-234.920	1589.075	1146.317	-192.056	1586.843	1149.017	-268.032	1573.189	1146.784	-231.038	1599.647	1063.975	-232.351	1732.082	566.277	-57.583	1603.875	508.455	-313.112	1635.479	580.675	-85.512	1544.899	583.525	-335.678	1671.148	504.263	-100.375	1511.880	503.376	-326.314	1730.669	184.440	-47.620	1357.045	196.137	-368.358	1747.333	151.871	-122.698	1333.659	164.234	-294.205	1883.246	77.416	-137.882	1410.246	36.975	-263.010
	95	0.89167	1551.449	729.996	-225.497	1541.872	725.133	-157.408	1525.743	729.506	-286.648	1698.165	408.675	-165.322	1435.715	424.868	-266.602	1813.571	83.870	-158.971	1320.364	82.353	-252.430	1608.608	790.928	-229.211	1620.909	787.593	-130.647	1596.307	794.263	-327.776	1463.310	839.212	-172.603	1453.530	841.758	-226.236	1700.713	408.560	-110.381	1423.161	425.088	-319.636	1689.006	404.018	-203.508	1437.864	407.071	-222.246	1805.803	81.826	-122.342	1310.287	84.275	-287.979	1817.264	88.247	-183.068	1318.869	84.337	-221.231	1493.946	1204.823	-234.510	1600.898	1144.676	-191.359	1598.731	1147.375	-267.371	1585.048	1145.100	-230.373	1611.743	1062.367	-231.664	1742.760	563.872	-58.295	1610.646	505.985	-314.763	1645.390	578.214	-85.793	1552.468	582.091	-336.354	1680.292	501.284	-99.570	1518.365	502.712	-326.485	1754.319	184.186	-46.655	1358.778	197.774	-368.188	1772.262	152.194	-121.658	1335.470	166.150	-293.834	1911.917	83.132	-137.906	1410.463	37.053	-263.112
	96	0.90000	1564.167	728.807	-225.444	1554.605	723.312	-157.018	1537.366	727.885	-286.107	1709.079	406.090	-165.052	1442.429	424.835	-266.545	1839.252	85.939	-157.986	1321.732	83.964	-252.566	1620.770	789.161	-229.297	1633.916	785.673	-130.849	1607.623	792.649	-327.745	1476.011	837.456	-171.409	1465.734	840.124	-224.993	1712.142	406.191	-110.137	1429.240	425.554	-319.420	1696.291	399.000	-200.304	1444.987	406.917	-221.301	1831.960	83.785	-121.265	1311.390	86.172	-288.022	1843.265	90.453	-182.020	1320.169	86.045	-221.328	1505.844	1202.947	-233.923	1612.799	1142.989	-190.588	1610.652	1145.579	-266.596	1596.960	1143.342	-229.603	1623.737	1060.634	-230.771	1754.508	561.866	-59.777	1617.841	503.567	-316.322	1656.359	576.004	-85.474	1560.484	580.632	-336.571	1690.525	498.547	-98.360	1525.234	501.699	-326.467	1776.687	184.392	-45.674	1361.063	199.354	-368.214	1795.606	153.045	-120.497	1337.653	167.916	-293.730	1938.243	88.681	-137.841	1410.694	37.114	-263.275
	97	0.90833	1576.796	727.411	-225.117	1567.458	721.469	-156.636	1549.183	726.159	-285.579	1719.821	403.459	-164.617	1449.746	424.614	-266.623	1862.448	87.880	-157.114	1323.177	85.671	-252.944	1633.062	787.357	-229.390	1646.998	783.781	-131.067	1619.126	790.933	-327.713	1488.694	835.669	-170.203	1478.011	838.412	-223.739	1723.900	404.037	-109.772	1435.981	425.839	-319.342	1704.607	394.869	-197.478	1452.840	406.786	-220.039	1855.719	85.715	-120.286	1312.665	88.168	-288.332	1865.952	92.520	-181.093	1321.470	87.903	-221.636	1517.800	1201.016	-233.173	1624.756	1141.223	-189.681	1622.661	1143.725	-265.662	1608.945	1141.517	-228.692	1635.802	1058.833	-229.748	1767.407	560.328	-62.003	1625.542	501.186	-317.839	1668.549	574.241	-84.961	1569.045	579.114	-336.891	1702.191	496.344	-97.382	1532.661	500.494	-326.339	1797.607	184.806	-44.722	1363.883	200.898	-368.435	1817.190	154.043	-119.377	1340.256	169.549	-293.980	1962.036	93.636	-137.687	1410.969	37.176	-263.475
	98	0.91667	1589.327	725.715	-224.384	1580.449	719.624	-156.230	1561.231	724.337	-285.034	1730.657	400.918	-164.039	1457.637	424.205	-266.818	1883.010	89.316	-156.383	1324.723	87.499	-253.539	1645.505	785.543	-229.446	1660.157	781.950	-131.239	1630.852	789.137	-327.653	1501.388	833.861	-168.988	1490.413	836.594	-222.480	1736.130	402.157	-109.326	1443.353	425.944	-319.384	1715.029	392.357	-196.339	1461.170	406.113	-219.754	1876.881	87.227	-119.446	1314.127	90.288	-288.880	1886.613	94.186	-180.330	1322.969	89.934	-222.211	1529.718	1198.983	-232.332	1636.764	1139.346	-188.752	1634.740	1141.816	-264.703	1620.991	1139.601	-227.762	1647.974	1056.958	-228.761	1781.323	559.237	-64.767	1633.839	498.822	-319.331	1681.483	572.908	-84.807	1578.153	577.565	-337.214	1715.176	494.893	-97.383	1540.815	499.286	-326.589	1816.920	185.140	-43.843	1367.221	202.433	-368.839	1836.754	154.728	-118.455	1343.273	171.127	-294.448	1983.158	97.520	-137.447	1411.325	37.262	-263.679
	99	0.92500	1601.963	723.843	-223.301	1593.599	717.798	-155.766	1573.559	722.429	-284.448	1741.874	398.593	-163.356	1466.105	423.630	-267.117	1900.882	89.929	-155.805	1326.420	89.474	-254.329	1658.120	783.748	-229.425	1673.400	780.218	-131.312	1642.841	787.279	-327.539	1514.150	832.027	-167.777	1502.972	834.652	-221.240	1748.971	400.594	-108.853	1451.364	425.891	-319.536	1724.724	390.937	-196.570	1469.950	404.916	-220.382	1895.326	87.973	-118.771	1315.811	92.558	-289.640	1905.207	95.380	-179.748	1324.652	92.150	-223.043	1541.713	1196.983	-231.401	1648.815	1137.530	-187.872	1646.859	1139.877	-263.874	1633.078	1137.705	-226.920	1660.158	1055.091	-227.762	1796.064	558.566	-67.853	1642.744	496.455	-320.766	1697.248	572.811	-85.623	1587.758	576.029	-337.511	1729.136	494.194	-98.404	1549.652	498.082	-327.181	1834.480	185.125	-43.074	1371.060	203.982	-369.419	1854.088	154.900	-117.696	1346.662	172.725	-295.030	2001.518	99.902	-137.149	1411.780	37.386	-263.883
	100	0.93333	1614.923	721.970	-221.982	1606.934	716.023	-155.216	1586.181	720.442	-283.793	1753.824	396.618	-162.641	1475.159	422.919	-267.511	1916.099	89.506	-155.378	1328.325	91.631	-255.288	1670.915	782.008	-229.315	1686.742	778.638	-131.258	1655.088	785.378	-327.371	1527.024	830.155	-166.597	1515.712	832.584	-220.040	1762.509	399.352	-108.400	1460.030	425.703	-319.795	1737.493	390.248	-197.364	1479.398	403.696	-221.048	1911.024	87.703	-118.267	1317.755	95.014	-290.585	1920.555	94.977	-179.363	1326.508	94.563	-224.025	1553.771	1195.045	-230.406	1660.964	1135.782	-186.946	1659.083	1138.057	-263.051	1645.267	1135.897	-226.061	1672.478	1053.325	-226.794	1811.262	558.173	-70.832	1652.280	494.097	-322.102	1712.239	572.631	-86.760	1597.986	574.511	-337.846	1743.804	493.964	-99.766	1559.177	496.851	-327.787	1850.204	184.565	-42.446	1375.381	205.576	-370.157	1869.730	154.700	-117.008	1350.382	174.475	-295.777	2017.103	100.462	-136.848	1412.328	37.546	-264.120
	101	0.94167	1628.466	720.337	-220.579	1620.494	714.331	-154.539	1599.108	718.389	-283.023	1766.580	394.991	-161.957	1484.789	422.091	-267.977	1928.763	87.957	-155.094	1330.498	94.015	-256.385	1683.903	780.354	-229.094	1700.224	777.258	-131.042	1667.582	783.451	-327.146	1540.040	828.239	-165.487	1528.655	830.412	-218.904	1776.735	398.383	-108.009	1469.355	425.397	-320.142	1751.433	389.810	-197.855	1489.385	402.357	-221.910	1924.069	86.308	-117.926	1320.012	97.699	-291.676	1933.496	93.441	-179.084	1328.661	97.142	-225.114	1565.913	1193.282	-229.345	1673.251	1134.086	-185.940	1671.395	1136.341	-262.024	1657.568	1134.175	-225.049	1684.865	1051.631	-225.755	1826.789	557.969	-73.565	1662.439	491.772	-323.270	1727.348	572.568	-87.587	1608.840	572.826	-338.058	1759.049	493.969	-100.837	1569.482	495.718	-328.407	1864.143	183.371	-41.984	1380.187	207.247	-371.016	1882.290	152.955	-116.703	1354.548	176.433	-296.762	2030.027	99.031	-136.616	1412.951	37.731	-264.405
	102	0.95000	1642.547	718.934	-219.141	1634.313	712.746	-153.698	1612.402	716.299	-282.109	1780.071	393.665	-161.360	1495.024	421.152	-268.470	1939.108	85.342	-154.959	1332.999	96.657	-257.577	1697.137	778.807	-228.713	1713.873	776.092	-130.628	1680.401	781.521	-326.798	1553.221	826.304	-164.475	1541.831	828.183	-217.859	1791.515	397.605	-107.708	1479.363	424.975	-320.531	1765.608	389.537	-197.929	1499.676	400.740	-223.226	1934.717	83.849	-117.747	1322.633	100.648	-292.870	1943.565	90.473	-178.960	1331.119	99.945	-226.326	1578.144	1191.532	-228.275	1685.598	1132.545	-184.900	1683.736	1134.718	-260.954	1669.913	1132.568	-223.992	1697.343	1050.068	-224.614	1842.530	557.827	-75.908	1673.240	489.493	-324.230	1743.025	572.667	-87.904	1620.196	570.965	-338.114	1774.747	494.061	-101.471	1580.436	494.602	-329.115	1876.504	181.567	-41.703	1385.497	209.012	-371.963	1893.496	150.670	-116.523	1358.788	178.739	-297.990	2040.596	95.571	-136.504	1413.635	37.923	-264.729
	103	0.95833	1656.881	717.568	-217.563	1648.344	711.293	-152.713	1626.090	714.218	-281.081	1794.116	392.611	-160.898	1505.937	420.105	-268.951	1947.643	82.182	-155.085	1335.896	99.573	-258.825	1710.644	777.366	-228.153	1727.658	775.129	-130.005	1693.629	779.603	-326.302	1566.553	824.428	-163.565	1555.258	825.972	-216.923	1806.620	396.960	-107.515	1490.113	424.426	-320.924	1780.559	389.105	-197.686	1510.182	399.233	-224.168	1943.623	80.892	-117.824	1325.677	103.879	-294.124	1950.967	86.305	-179.191	1333.973	103.078	-227.619	1590.357	1189.640	-227.174	1697.960	1131.100	-183.887	1696.132	1133.229	-259.988	1682.297	1131.046	-223.010	1710.033	1048.648	-223.575	1858.348	557.659	-77.719	1684.617	487.234	-324.947	1758.844	572.589	-88.033	1632.142	569.174	-338.066	1790.734	494.030	-101.798	1591.589	493.039	-329.536	1888.109	179.500	-41.805	1391.338	210.881	-372.966	1902.923	147.688	-116.436	1362.889	181.406	-299.421	2049.350	90.184	-136.514	1414.403	38.115	-265.086
